G75*
G70*
%OFA0B0*%
%FSLAX24Y24*%
%IPPOS*%
%LPD*%
%AMOC8*
5,1,8,0,0,1.08239X$1,22.5*
%
%ADD10OC8,0.0520*%
%ADD11C,0.0550*%
%ADD12OC8,0.0515*%
%ADD13C,0.0594*%
%ADD14C,0.0160*%
%ADD15C,0.0357*%
D10*
X007208Y004048D03*
X008418Y004048D03*
X009588Y004058D03*
X009588Y007058D03*
X008418Y007048D03*
X007208Y007048D03*
X001508Y005248D03*
X001508Y004248D03*
D11*
X011308Y004098D03*
X012308Y004598D03*
X011308Y005098D03*
X012308Y005598D03*
X011308Y006098D03*
X012308Y003598D03*
X011308Y003098D03*
X012308Y002598D03*
D12*
X004118Y001848D03*
X006618Y001848D03*
X007168Y002398D03*
X006618Y002948D03*
X004118Y002948D03*
D13*
X013611Y003348D02*
X014205Y003348D01*
X014205Y004348D02*
X013611Y004348D01*
X013611Y005348D02*
X014205Y005348D01*
D14*
X013408Y004748D02*
X012908Y005248D01*
X012908Y005748D01*
X012508Y006148D01*
X012108Y006148D01*
X011308Y005348D01*
X011308Y005098D01*
X011208Y005348D01*
X009908Y006648D01*
X007408Y004148D01*
X007208Y004048D01*
X007208Y002648D01*
X007168Y002398D01*
X007408Y001848D02*
X008008Y002348D01*
X008008Y002398D01*
X008008Y003448D01*
X008308Y003848D01*
X008418Y004048D01*
X009408Y004048D01*
X009588Y004058D01*
X009808Y004148D01*
X011108Y004148D01*
X011308Y004098D01*
X011508Y004248D01*
X011708Y004448D01*
X012108Y004448D01*
X012308Y004598D01*
X012508Y004448D01*
X013408Y003548D01*
X013908Y003348D01*
X013908Y004348D02*
X013408Y004548D01*
X013408Y004748D01*
X009908Y006648D02*
X009708Y006848D01*
X009588Y007058D01*
X006408Y001948D02*
X004208Y004148D01*
X001708Y004148D01*
X001508Y004248D01*
X006408Y001948D02*
X006618Y001848D01*
X007408Y001848D01*
D15*
X008008Y002398D03*
M02*
