%
M48
M72
T01C0.0200
T02C0.0310
T03C0.0320
T04C0.0350
T05C0.0390
T06C0.1280
T07C0.1330
%
T01
X8008Y2398
T02
X4118Y1848
X6618Y1848
X7168Y2398
X6618Y2948
X4118Y2948
T03
X1508Y4248
X1508Y5248
X7208Y4048
X8418Y4048
X9588Y4058
X9588Y7058
X8418Y7048
X7208Y7048
T04
X11308Y6098
X12308Y5598
X11308Y5098
X12308Y4598
X11308Y4098
X12308Y3598
X11308Y3098
X12308Y2598
T05
X13908Y3348
X13908Y4348
X13908Y5348
T06
X14808Y6598
X14808Y2098
T07
X9148Y2398
X1588Y2398
M30
