G75*
G70*
%OFA0B0*%
%FSLAX24Y24*%
%IPPOS*%
%LPD*%
%AMOC8*
5,1,8,0,0,1.08239X$1,22.5*
%
%ADD10C,0.0000*%
%ADD11C,0.0030*%
%ADD12C,0.0020*%
%ADD13C,0.0025*%
%ADD14C,0.0010*%
%ADD15C,0.0240*%
%ADD16C,0.0060*%
%ADD17R,0.0240X0.0100*%
%ADD18C,0.0050*%
%ADD19C,0.0100*%
%ADD20C,0.0080*%
%ADD21C,0.0040*%
D10*
X000483Y001120D02*
X000483Y007596D01*
X015803Y007596D01*
X015803Y001120D01*
X000483Y001120D01*
X000923Y002398D02*
X000959Y002614D01*
X001063Y002806D01*
X001224Y002955D01*
X001425Y003043D01*
X001643Y003061D01*
X001855Y003007D01*
X002038Y002887D01*
X002173Y002715D01*
X002244Y002507D01*
X002244Y002289D01*
X002173Y002081D01*
X002038Y001909D01*
X001855Y001789D01*
X001643Y001735D01*
X001425Y001753D01*
X001224Y001841D01*
X001063Y001990D01*
X000959Y002182D01*
X000923Y002398D01*
X008483Y002398D02*
X008519Y002614D01*
X008623Y002806D01*
X008784Y002955D01*
X008985Y003043D01*
X009203Y003061D01*
X009415Y003007D01*
X009598Y002887D01*
X009733Y002715D01*
X009804Y002507D01*
X009804Y002289D01*
X009733Y002081D01*
X009598Y001909D01*
X009415Y001789D01*
X009203Y001735D01*
X008985Y001753D01*
X008784Y001841D01*
X008623Y001990D01*
X008519Y002182D01*
X008483Y002398D01*
X014168Y002098D02*
X014207Y002317D01*
X014318Y002509D01*
X014488Y002652D01*
X014697Y002728D01*
X014919Y002728D01*
X015128Y002652D01*
X015298Y002509D01*
X015409Y002317D01*
X015448Y002098D01*
X015409Y001879D01*
X015298Y001687D01*
X015128Y001544D01*
X014919Y001468D01*
X014697Y001468D01*
X014488Y001544D01*
X014318Y001687D01*
X014207Y001879D01*
X014168Y002098D01*
X014168Y006598D02*
X014207Y006817D01*
X014318Y007009D01*
X014488Y007152D01*
X014697Y007228D01*
X014919Y007228D01*
X015128Y007152D01*
X015298Y007009D01*
X015409Y006817D01*
X015448Y006598D01*
X015409Y006379D01*
X015298Y006187D01*
X015128Y006044D01*
X014919Y005968D01*
X014697Y005968D01*
X014488Y006044D01*
X014318Y006187D01*
X014207Y006379D01*
X014168Y006598D01*
D11*
X015353Y005748D02*
X015353Y005602D01*
X015643Y005602D01*
X015643Y005748D01*
X015595Y005796D01*
X015401Y005796D01*
X015353Y005748D01*
X015353Y005501D02*
X015643Y005501D01*
X015353Y005308D01*
X015643Y005308D01*
X015595Y005207D02*
X015498Y005207D01*
X015498Y005110D01*
X015401Y005207D02*
X015353Y005158D01*
X015353Y005062D01*
X015401Y005013D01*
X015595Y005013D01*
X015643Y005062D01*
X015643Y005158D01*
X015595Y005207D01*
X015595Y004698D02*
X015498Y004698D01*
X015498Y004601D01*
X015401Y004504D02*
X015353Y004553D01*
X015353Y004649D01*
X015401Y004698D01*
X015595Y004698D02*
X015643Y004649D01*
X015643Y004553D01*
X015595Y004504D01*
X015401Y004504D01*
X015353Y004405D02*
X015353Y004308D01*
X015353Y004356D02*
X015643Y004356D01*
X015643Y004308D02*
X015643Y004405D01*
X015595Y004207D02*
X015547Y004207D01*
X015498Y004158D01*
X015498Y004062D01*
X015450Y004013D01*
X015401Y004013D01*
X015353Y004062D01*
X015353Y004158D01*
X015401Y004207D01*
X015595Y004207D02*
X015643Y004158D01*
X015643Y004062D01*
X015595Y004013D01*
X015595Y003646D02*
X015643Y003598D01*
X015643Y003501D01*
X015595Y003452D01*
X015401Y003452D01*
X015353Y003501D01*
X015353Y003598D01*
X015401Y003646D01*
X015401Y003351D02*
X015353Y003303D01*
X015353Y003206D01*
X015401Y003158D01*
X015595Y003158D01*
X015643Y003206D01*
X015643Y003303D01*
X015595Y003351D01*
X015547Y003057D02*
X015353Y003057D01*
X015547Y003057D02*
X015643Y002960D01*
X015547Y002863D01*
X015353Y002863D01*
X008420Y002948D02*
X008173Y002948D01*
X008173Y003010D02*
X008297Y003134D01*
X008420Y003010D01*
X008420Y002763D01*
X008173Y002763D02*
X008173Y003010D01*
X007770Y002772D02*
X007709Y002834D01*
X007523Y002834D01*
X007523Y002463D01*
X007709Y002463D01*
X007770Y002525D01*
X007770Y002587D01*
X007709Y002648D01*
X007523Y002648D01*
X007709Y002648D02*
X007770Y002710D01*
X007770Y002772D01*
X004172Y006296D02*
X004226Y006350D01*
X004226Y006617D01*
X004065Y006617D01*
X004012Y006563D01*
X004012Y006457D01*
X004065Y006403D01*
X004226Y006403D01*
X004334Y006403D02*
X004548Y006723D01*
X004710Y006617D02*
X004657Y006563D01*
X004657Y006457D01*
X004710Y006403D01*
X004817Y006403D01*
X004870Y006457D01*
X004870Y006563D01*
X004817Y006617D01*
X004710Y006617D01*
X004979Y006563D02*
X005032Y006617D01*
X005139Y006617D01*
X005192Y006563D01*
X005192Y006510D01*
X004979Y006510D01*
X004979Y006457D02*
X004979Y006563D01*
X004979Y006457D02*
X005032Y006403D01*
X005139Y006403D01*
X005301Y006403D02*
X005461Y006403D01*
X005515Y006457D01*
X005461Y006510D01*
X005354Y006510D01*
X005301Y006563D01*
X005354Y006617D01*
X005515Y006617D01*
X005623Y006670D02*
X005677Y006723D01*
X005783Y006723D01*
X005837Y006670D01*
X005837Y006617D01*
X005623Y006403D01*
X005837Y006403D01*
X005946Y006403D02*
X005999Y006403D01*
X005999Y006457D01*
X005946Y006457D01*
X005946Y006403D01*
X006107Y006403D02*
X006320Y006403D01*
X006213Y006403D02*
X006213Y006723D01*
X006107Y006617D01*
X006110Y007003D02*
X006110Y007353D01*
X005993Y007237D01*
X005702Y007237D02*
X005702Y007295D01*
X005644Y007353D01*
X005527Y007353D01*
X005468Y007295D01*
X005352Y007237D02*
X005235Y007003D01*
X005119Y007237D01*
X005468Y007003D02*
X005702Y007237D01*
X005818Y007062D02*
X005877Y007062D01*
X005877Y007003D01*
X005818Y007003D01*
X005818Y007062D01*
X005702Y007003D02*
X005468Y007003D01*
X005993Y007003D02*
X006227Y007003D01*
X004652Y007062D02*
X004594Y007003D01*
X004419Y007003D01*
X004419Y006886D02*
X004419Y007237D01*
X004594Y007237D01*
X004652Y007178D01*
X004652Y007062D01*
X004302Y007062D02*
X004244Y007003D01*
X004127Y007003D01*
X004069Y007062D01*
X004069Y007178D01*
X004127Y007237D01*
X004244Y007237D01*
X004302Y007178D01*
X004302Y007062D01*
X003952Y007003D02*
X003894Y007062D01*
X003894Y007295D01*
X003836Y007237D02*
X003952Y007237D01*
X003719Y007237D02*
X003544Y007237D01*
X003486Y007178D01*
X003544Y007120D01*
X003661Y007120D01*
X003719Y007062D01*
X003661Y007003D01*
X003486Y007003D01*
X003369Y007003D02*
X003194Y007003D01*
X003136Y007062D01*
X003136Y007178D01*
X003194Y007237D01*
X003369Y007237D01*
X003019Y007178D02*
X003019Y007003D01*
X003369Y007003D02*
X003369Y007353D01*
X003019Y007178D02*
X002961Y007237D01*
X002786Y007237D01*
X002786Y007003D01*
X002670Y007003D02*
X002436Y007003D01*
X002436Y007353D01*
X002670Y007353D01*
X002553Y007178D02*
X002436Y007178D01*
X001970Y007178D02*
X001970Y007062D01*
X001911Y007003D01*
X001795Y007003D01*
X001736Y007062D01*
X001736Y007178D01*
X001795Y007237D01*
X001911Y007237D01*
X001970Y007178D01*
X001620Y007237D02*
X001503Y007237D01*
X001561Y007295D02*
X001561Y007062D01*
X001620Y007003D01*
X001387Y007062D02*
X001328Y007003D01*
X001153Y007003D01*
X001153Y006886D02*
X001153Y007237D01*
X001328Y007237D01*
X001387Y007178D01*
X001387Y007062D01*
X001037Y007062D02*
X000978Y007003D01*
X000862Y007003D01*
X000803Y007062D01*
X000803Y007295D01*
X000862Y007353D01*
X000978Y007353D01*
X001037Y007295D01*
X001037Y007062D01*
X001488Y006723D02*
X001488Y006403D01*
X001488Y006510D02*
X001648Y006403D01*
X001756Y006457D02*
X001756Y006563D01*
X001810Y006617D01*
X001916Y006617D01*
X001970Y006563D01*
X001970Y006510D01*
X001756Y006510D01*
X001756Y006457D02*
X001810Y006403D01*
X001916Y006403D01*
X002079Y006403D02*
X002079Y006457D01*
X002132Y006457D01*
X002132Y006403D01*
X002079Y006403D01*
X002240Y006403D02*
X002240Y006617D01*
X002346Y006617D02*
X002240Y006510D01*
X002346Y006617D02*
X002400Y006617D01*
X002508Y006617D02*
X002508Y006403D01*
X002777Y006403D02*
X002777Y006617D01*
X002777Y006510D02*
X002884Y006617D01*
X002937Y006617D01*
X003045Y006563D02*
X003152Y006563D01*
X003260Y006457D02*
X003314Y006457D01*
X003314Y006403D01*
X003260Y006403D01*
X003260Y006457D01*
X003421Y006457D02*
X003475Y006403D01*
X003581Y006403D01*
X003635Y006457D01*
X003635Y006563D01*
X003581Y006617D01*
X003475Y006617D01*
X003421Y006563D01*
X003421Y006457D01*
X003744Y006510D02*
X003850Y006617D01*
X003904Y006617D01*
X003744Y006617D02*
X003744Y006403D01*
X004119Y006296D02*
X004172Y006296D01*
X003099Y006403D02*
X003099Y006670D01*
X003152Y006723D01*
X002668Y006617D02*
X002615Y006617D01*
X002508Y006510D01*
X001648Y006617D02*
X001488Y006510D01*
X001379Y006510D02*
X001219Y006510D01*
X001166Y006457D01*
X001219Y006403D01*
X001379Y006403D01*
X001379Y006563D01*
X001326Y006617D01*
X001219Y006617D01*
X001057Y006563D02*
X001057Y006403D01*
X000950Y006403D02*
X000950Y006563D01*
X001003Y006617D01*
X001057Y006563D01*
X000950Y006563D02*
X000897Y006617D01*
X000843Y006617D01*
X000843Y006403D01*
D12*
X000868Y006088D02*
X000978Y006088D01*
X001015Y006052D01*
X001015Y005905D01*
X000978Y005868D01*
X000868Y005868D01*
X000868Y006088D01*
X001089Y005978D02*
X001126Y006015D01*
X001199Y006015D01*
X001236Y005978D01*
X001236Y005942D01*
X001089Y005942D01*
X001089Y005978D02*
X001089Y005905D01*
X001126Y005868D01*
X001199Y005868D01*
X001310Y005868D02*
X001420Y005868D01*
X001457Y005905D01*
X001420Y005942D01*
X001347Y005942D01*
X001310Y005978D01*
X001347Y006015D01*
X001457Y006015D01*
X001531Y006015D02*
X001568Y006015D01*
X001568Y005868D01*
X001531Y005868D02*
X001605Y005868D01*
X001679Y005905D02*
X001715Y005868D01*
X001825Y005868D01*
X001825Y005831D02*
X001825Y006015D01*
X001715Y006015D01*
X001679Y005978D01*
X001679Y005905D01*
X001789Y005795D02*
X001825Y005831D01*
X001789Y005795D02*
X001752Y005795D01*
X001900Y005868D02*
X001900Y006015D01*
X002010Y006015D01*
X002046Y005978D01*
X002046Y005868D01*
X002342Y005868D02*
X002452Y005868D01*
X002488Y005905D01*
X002488Y005942D01*
X002452Y005978D01*
X002342Y005978D01*
X002452Y005978D02*
X002488Y006015D01*
X002488Y006052D01*
X002452Y006088D01*
X002342Y006088D01*
X002342Y005868D01*
X002563Y005905D02*
X002599Y005868D01*
X002709Y005868D01*
X002709Y005831D02*
X002673Y005795D01*
X002636Y005795D01*
X002709Y005831D02*
X002709Y006015D01*
X002784Y006015D02*
X002784Y005978D01*
X002820Y005978D01*
X002820Y006015D01*
X002784Y006015D01*
X002784Y005905D02*
X002784Y005868D01*
X002820Y005868D01*
X002820Y005905D01*
X002784Y005905D01*
X002563Y005905D02*
X002563Y006015D01*
X003115Y006088D02*
X003262Y006088D01*
X003262Y006052D01*
X003115Y005905D01*
X003115Y005868D01*
X003262Y005868D01*
X003336Y005905D02*
X003373Y005868D01*
X003483Y005868D01*
X003483Y005978D01*
X003446Y006015D01*
X003373Y006015D01*
X003373Y005942D02*
X003483Y005942D01*
X003557Y005978D02*
X003557Y005905D01*
X003594Y005868D01*
X003704Y005868D01*
X003778Y005868D02*
X003778Y006088D01*
X003815Y006015D02*
X003888Y006015D01*
X003925Y005978D01*
X003925Y005868D01*
X003999Y005868D02*
X003999Y006088D01*
X003999Y005978D02*
X004146Y005978D01*
X004220Y005978D02*
X004220Y005905D01*
X004257Y005868D01*
X004330Y005868D01*
X004367Y005905D01*
X004367Y005978D01*
X004330Y006015D01*
X004257Y006015D01*
X004220Y005978D01*
X004146Y006088D02*
X004146Y005868D01*
X004441Y005905D02*
X004441Y005978D01*
X004478Y006015D01*
X004551Y006015D01*
X004588Y005978D01*
X004588Y005942D01*
X004441Y005942D01*
X004441Y005905D02*
X004478Y005868D01*
X004551Y005868D01*
X004662Y005868D02*
X004662Y006088D01*
X004772Y006015D02*
X004662Y005942D01*
X004772Y005868D01*
X004846Y005905D02*
X004846Y005978D01*
X004883Y006015D01*
X004956Y006015D01*
X004993Y005978D01*
X004993Y005942D01*
X004846Y005942D01*
X004846Y005905D02*
X004883Y005868D01*
X004956Y005868D01*
X005067Y005868D02*
X005067Y006015D01*
X005177Y006015D01*
X005214Y005978D01*
X005214Y005868D01*
X005288Y005868D02*
X005288Y005905D01*
X005325Y005905D01*
X005325Y005868D01*
X005288Y005868D01*
X005398Y005905D02*
X005435Y005868D01*
X005545Y005868D01*
X005619Y005905D02*
X005656Y005868D01*
X005730Y005868D01*
X005766Y005905D01*
X005766Y005978D01*
X005730Y006015D01*
X005656Y006015D01*
X005619Y005978D01*
X005619Y005905D01*
X005545Y006015D02*
X005435Y006015D01*
X005398Y005978D01*
X005398Y005905D01*
X005696Y005642D02*
X005733Y005678D01*
X005696Y005642D02*
X005696Y005458D01*
X005585Y005495D02*
X005585Y005568D01*
X005549Y005605D01*
X005475Y005605D01*
X005439Y005568D01*
X005439Y005495D01*
X005475Y005458D01*
X005549Y005458D01*
X005585Y005495D01*
X005660Y005568D02*
X005733Y005568D01*
X005364Y005568D02*
X005364Y005495D01*
X005328Y005458D01*
X005254Y005458D01*
X005218Y005495D01*
X005218Y005568D01*
X005254Y005605D01*
X005328Y005605D01*
X005364Y005568D01*
X005144Y005605D02*
X005107Y005605D01*
X005034Y005532D01*
X005034Y005605D02*
X005034Y005458D01*
X004959Y005495D02*
X004923Y005458D01*
X004849Y005458D01*
X004813Y005495D01*
X004813Y005642D01*
X004849Y005678D01*
X004923Y005678D01*
X004959Y005642D01*
X004959Y005568D02*
X004886Y005568D01*
X004959Y005568D02*
X004959Y005495D01*
X004738Y005532D02*
X004738Y005568D01*
X004702Y005605D01*
X004628Y005605D01*
X004592Y005568D01*
X004592Y005495D01*
X004628Y005458D01*
X004702Y005458D01*
X004738Y005532D02*
X004592Y005532D01*
X004517Y005495D02*
X004517Y005642D01*
X004481Y005678D01*
X004371Y005678D01*
X004371Y005458D01*
X004481Y005458D01*
X004517Y005495D01*
X004075Y005532D02*
X003929Y005532D01*
X003929Y005568D02*
X003929Y005495D01*
X003965Y005458D01*
X004039Y005458D01*
X004075Y005532D02*
X004075Y005568D01*
X004039Y005605D01*
X003965Y005605D01*
X003929Y005568D01*
X003854Y005605D02*
X003781Y005458D01*
X003708Y005605D01*
X003633Y005568D02*
X003633Y005532D01*
X003487Y005532D01*
X003487Y005568D02*
X003487Y005495D01*
X003523Y005458D01*
X003597Y005458D01*
X003413Y005458D02*
X003376Y005495D01*
X003376Y005642D01*
X003339Y005605D02*
X003413Y005605D01*
X003487Y005568D02*
X003523Y005605D01*
X003597Y005605D01*
X003633Y005568D01*
X003265Y005532D02*
X003265Y005495D01*
X003228Y005458D01*
X003155Y005458D01*
X003118Y005495D01*
X003155Y005568D02*
X003228Y005568D01*
X003265Y005532D01*
X003265Y005642D02*
X003228Y005678D01*
X003155Y005678D01*
X003118Y005642D01*
X003118Y005605D01*
X003155Y005568D01*
X002698Y005494D02*
X002662Y005531D01*
X002515Y005531D01*
X002478Y005494D01*
X002478Y005384D01*
X002698Y005384D01*
X002698Y005494D01*
X002698Y005310D02*
X002698Y005163D01*
X002478Y005163D01*
X002478Y005310D01*
X002588Y005236D02*
X002588Y005163D01*
X002478Y005089D02*
X002625Y004942D01*
X002588Y004979D02*
X002698Y005089D01*
X002698Y004942D02*
X002478Y004942D01*
X002515Y004868D02*
X002478Y004831D01*
X002478Y004758D01*
X002515Y004721D01*
X002662Y004721D01*
X002698Y004758D01*
X002698Y004831D01*
X002662Y004868D01*
X002662Y004647D02*
X002515Y004647D01*
X002478Y004610D01*
X002478Y004537D01*
X002515Y004500D01*
X002662Y004500D01*
X002698Y004537D01*
X002698Y004610D01*
X002662Y004647D01*
X002698Y004426D02*
X002698Y004279D01*
X002478Y004279D01*
X002515Y004205D02*
X002552Y004205D01*
X002588Y004168D01*
X002588Y004058D01*
X002478Y004058D02*
X002478Y004168D01*
X002515Y004205D01*
X002588Y004168D02*
X002625Y004205D01*
X002662Y004205D01*
X002698Y004168D01*
X002698Y004058D01*
X002478Y004058D01*
X003318Y004445D02*
X003355Y004408D01*
X003428Y004408D01*
X003465Y004445D01*
X003318Y004445D02*
X003318Y004592D01*
X003355Y004628D01*
X003428Y004628D01*
X003465Y004592D01*
X003760Y004628D02*
X003760Y004408D01*
X003760Y004482D02*
X003870Y004482D01*
X003907Y004518D01*
X003907Y004592D01*
X003870Y004628D01*
X003760Y004628D01*
X003981Y004628D02*
X004091Y004628D01*
X004128Y004592D01*
X004128Y004518D01*
X004091Y004482D01*
X003981Y004482D01*
X004055Y004482D02*
X004128Y004408D01*
X004202Y004408D02*
X004202Y004628D01*
X004312Y004628D01*
X004349Y004592D01*
X004349Y004518D01*
X004312Y004482D01*
X004202Y004482D01*
X004276Y004482D02*
X004349Y004408D01*
X004423Y004408D02*
X004423Y004628D01*
X004570Y004628D01*
X004497Y004518D02*
X004423Y004518D01*
X004644Y004445D02*
X004681Y004445D01*
X004681Y004408D01*
X004644Y004408D01*
X004644Y004445D01*
X004755Y004445D02*
X004755Y004518D01*
X004791Y004555D01*
X004865Y004555D01*
X004901Y004518D01*
X004901Y004445D01*
X004865Y004408D01*
X004791Y004408D01*
X004755Y004445D01*
X004855Y004328D02*
X004818Y004292D01*
X004818Y004145D01*
X004855Y004108D01*
X004928Y004108D01*
X004965Y004145D01*
X004965Y004218D01*
X004892Y004218D01*
X004965Y004292D02*
X004928Y004328D01*
X004855Y004328D01*
X004976Y004408D02*
X004976Y004555D01*
X005049Y004555D02*
X005086Y004555D01*
X005049Y004555D02*
X004976Y004482D01*
X005039Y004328D02*
X005149Y004328D01*
X005186Y004292D01*
X005186Y004218D01*
X005149Y004182D01*
X005039Y004182D01*
X005039Y004108D02*
X005039Y004328D01*
X005160Y004445D02*
X005197Y004408D01*
X005307Y004408D01*
X005307Y004371D02*
X005307Y004555D01*
X005197Y004555D01*
X005160Y004518D01*
X005160Y004445D01*
X005233Y004335D02*
X005270Y004335D01*
X005307Y004371D01*
X005260Y004328D02*
X005260Y004108D01*
X005407Y004108D01*
X005702Y004255D02*
X005776Y004108D01*
X005849Y004255D01*
X005923Y004292D02*
X005960Y004328D01*
X006033Y004328D01*
X006070Y004292D01*
X006070Y004255D01*
X005923Y004108D01*
X006070Y004108D01*
X006144Y004108D02*
X006181Y004108D01*
X006181Y004145D01*
X006144Y004145D01*
X006144Y004108D01*
X006255Y004145D02*
X006401Y004292D01*
X006401Y004145D01*
X006365Y004108D01*
X006291Y004108D01*
X006255Y004145D01*
X006255Y004292D01*
X006291Y004328D01*
X006365Y004328D01*
X006401Y004292D01*
X006375Y004408D02*
X006301Y004408D01*
X006265Y004445D01*
X006265Y004482D01*
X006301Y004518D01*
X006375Y004518D01*
X006412Y004482D01*
X006412Y004445D01*
X006375Y004408D01*
X006375Y004518D02*
X006412Y004555D01*
X006412Y004592D01*
X006375Y004628D01*
X006301Y004628D01*
X006265Y004592D01*
X006265Y004555D01*
X006301Y004518D01*
X006191Y004445D02*
X006154Y004408D01*
X006080Y004408D01*
X006044Y004445D01*
X006191Y004592D01*
X006191Y004445D01*
X006044Y004445D02*
X006044Y004592D01*
X006080Y004628D01*
X006154Y004628D01*
X006191Y004592D01*
X005970Y004592D02*
X005823Y004445D01*
X005859Y004408D01*
X005933Y004408D01*
X005970Y004445D01*
X005970Y004592D01*
X005933Y004628D01*
X005859Y004628D01*
X005823Y004592D01*
X005823Y004445D01*
X005749Y004408D02*
X005602Y004408D01*
X005749Y004555D01*
X005749Y004592D01*
X005712Y004628D01*
X005639Y004628D01*
X005602Y004592D01*
X003981Y004628D02*
X003981Y004408D01*
X003907Y004408D02*
X003834Y004482D01*
X003886Y003528D02*
X003959Y003528D01*
X003996Y003492D01*
X003849Y003345D01*
X003886Y003308D01*
X003959Y003308D01*
X003996Y003345D01*
X003996Y003492D01*
X004070Y003455D02*
X004144Y003528D01*
X004144Y003308D01*
X004217Y003308D02*
X004070Y003308D01*
X003849Y003345D02*
X003849Y003492D01*
X003886Y003528D01*
X003775Y003492D02*
X003738Y003528D01*
X003665Y003528D01*
X003628Y003492D01*
X003628Y003455D01*
X003665Y003418D01*
X003775Y003418D01*
X003775Y003345D02*
X003775Y003492D01*
X003775Y003345D02*
X003738Y003308D01*
X003665Y003308D01*
X003628Y003345D01*
X003554Y003308D02*
X003407Y003308D01*
X003481Y003308D02*
X003481Y003528D01*
X003407Y003455D01*
X003333Y003492D02*
X003333Y003345D01*
X003296Y003308D01*
X003186Y003308D01*
X003186Y003528D01*
X003296Y003528D01*
X003333Y003492D01*
X003112Y003492D02*
X002965Y003345D01*
X002965Y003308D01*
X003112Y003308D01*
X002670Y003455D02*
X002634Y003455D01*
X002560Y003382D01*
X002560Y003455D02*
X002560Y003308D01*
X002486Y003345D02*
X002449Y003308D01*
X002376Y003308D01*
X002339Y003345D01*
X002339Y003418D01*
X002376Y003455D01*
X002449Y003455D01*
X002486Y003418D01*
X002486Y003345D01*
X002265Y003528D02*
X002118Y003528D01*
X002118Y003308D01*
X002118Y003418D02*
X002192Y003418D01*
X002965Y003528D02*
X003112Y003528D01*
X003112Y003492D01*
X004291Y003235D02*
X004365Y003308D01*
X004328Y003308D01*
X004328Y003345D01*
X004365Y003345D01*
X004365Y003308D01*
X004660Y003345D02*
X004660Y003418D01*
X004696Y003455D01*
X004770Y003455D01*
X004806Y003418D01*
X004806Y003382D01*
X004660Y003382D01*
X004660Y003345D02*
X004696Y003308D01*
X004770Y003308D01*
X004917Y003345D02*
X004954Y003308D01*
X004917Y003345D02*
X004917Y003492D01*
X004881Y003455D02*
X004954Y003455D01*
X005028Y003418D02*
X005028Y003345D01*
X005065Y003308D01*
X005175Y003308D01*
X005249Y003308D02*
X005249Y003345D01*
X005286Y003345D01*
X005286Y003308D01*
X005249Y003308D01*
X005249Y003418D02*
X005249Y003455D01*
X005286Y003455D01*
X005286Y003418D01*
X005249Y003418D01*
X005175Y003455D02*
X005065Y003455D01*
X005028Y003418D01*
X005580Y003418D02*
X005580Y003345D01*
X005617Y003308D01*
X005727Y003308D01*
X005801Y003345D02*
X005838Y003308D01*
X005948Y003308D01*
X005948Y003455D01*
X006022Y003455D02*
X006096Y003455D01*
X006059Y003492D02*
X006059Y003345D01*
X006096Y003308D01*
X006391Y003308D02*
X006391Y003455D01*
X006464Y003528D01*
X006537Y003455D01*
X006537Y003308D01*
X006612Y003235D02*
X006685Y003308D01*
X006648Y003308D01*
X006648Y003345D01*
X006685Y003345D01*
X006685Y003308D01*
X006537Y003418D02*
X006391Y003418D01*
X006980Y003235D02*
X007017Y003235D01*
X007053Y003271D01*
X007053Y003455D01*
X007053Y003528D02*
X007053Y003565D01*
X007127Y003455D02*
X007127Y003345D01*
X007164Y003308D01*
X007274Y003308D01*
X007274Y003455D01*
X007348Y003455D02*
X007385Y003455D01*
X007422Y003418D01*
X007458Y003455D01*
X007495Y003418D01*
X007495Y003308D01*
X007422Y003308D02*
X007422Y003418D01*
X007348Y003455D02*
X007348Y003308D01*
X007569Y003308D02*
X007679Y003308D01*
X007716Y003345D01*
X007716Y003418D01*
X007679Y003455D01*
X007569Y003455D01*
X007569Y003235D01*
X007790Y003345D02*
X007827Y003308D01*
X007900Y003308D01*
X007937Y003382D02*
X007790Y003382D01*
X007790Y003418D02*
X007790Y003345D01*
X007790Y003418D02*
X007827Y003455D01*
X007900Y003455D01*
X007937Y003418D01*
X007937Y003382D01*
X008011Y003382D02*
X008085Y003455D01*
X008121Y003455D01*
X008011Y003455D02*
X008011Y003308D01*
X008416Y003308D02*
X008526Y003308D01*
X008563Y003345D01*
X008563Y003382D01*
X008526Y003418D01*
X008416Y003418D01*
X008416Y003308D02*
X008416Y003528D01*
X008526Y003528D01*
X008563Y003492D01*
X008563Y003455D01*
X008526Y003418D01*
X005801Y003455D02*
X005801Y003345D01*
X005727Y003455D02*
X005617Y003455D01*
X005580Y003418D01*
X005840Y005868D02*
X005840Y006015D01*
X005877Y006015D01*
X005914Y005978D01*
X005951Y006015D01*
X005987Y005978D01*
X005987Y005868D01*
X005914Y005868D02*
X005914Y005978D01*
X003815Y006015D02*
X003778Y005978D01*
X003704Y006015D02*
X003594Y006015D01*
X003557Y005978D01*
X003373Y005942D02*
X003336Y005905D01*
X001568Y006088D02*
X001568Y006125D01*
X017533Y007323D02*
X017533Y001373D01*
D13*
X003250Y004518D02*
X003285Y004613D01*
X003372Y004664D01*
X003472Y004646D01*
X003537Y004569D01*
X003537Y004467D01*
X003472Y004390D01*
X003372Y004372D01*
X003285Y004423D01*
X003250Y004518D01*
D14*
X007908Y002948D02*
X008108Y002948D01*
X007758Y002348D02*
X007808Y002298D01*
X007758Y002248D01*
X007808Y002298D02*
X007458Y002298D01*
X007508Y002348D01*
X007458Y002298D02*
X007508Y002248D01*
D15*
X007208Y004048D02*
X007208Y004198D01*
X008418Y004198D02*
X008418Y004048D01*
X009588Y004058D02*
X009588Y004208D01*
X009588Y006908D02*
X009588Y007058D01*
X008418Y007048D02*
X008418Y006898D01*
X007208Y006898D02*
X007208Y007048D01*
D16*
X006858Y006798D02*
X007558Y006798D01*
X007575Y006796D01*
X007592Y006792D01*
X007608Y006785D01*
X007622Y006775D01*
X007635Y006762D01*
X007645Y006748D01*
X007652Y006732D01*
X007656Y006715D01*
X007658Y006698D01*
X007658Y006548D01*
X007608Y006498D01*
X007608Y004598D01*
X007658Y004548D01*
X007658Y004398D01*
X007656Y004381D01*
X007652Y004364D01*
X007645Y004348D01*
X007635Y004334D01*
X007622Y004321D01*
X007608Y004311D01*
X007592Y004304D01*
X007575Y004300D01*
X007558Y004298D01*
X006858Y004298D01*
X006841Y004300D01*
X006824Y004304D01*
X006808Y004311D01*
X006794Y004321D01*
X006781Y004334D01*
X006771Y004348D01*
X006764Y004364D01*
X006760Y004381D01*
X006758Y004398D01*
X006758Y004548D01*
X006808Y004598D01*
X006808Y006498D01*
X006758Y006548D01*
X006758Y006698D01*
X006760Y006715D01*
X006764Y006732D01*
X006771Y006748D01*
X006781Y006762D01*
X006794Y006775D01*
X006808Y006785D01*
X006824Y006792D01*
X006841Y006796D01*
X006858Y006798D01*
X007968Y006698D02*
X007968Y006548D01*
X008018Y006498D01*
X008018Y004598D01*
X007968Y004548D01*
X007968Y004398D01*
X007970Y004381D01*
X007974Y004364D01*
X007981Y004348D01*
X007991Y004334D01*
X008004Y004321D01*
X008018Y004311D01*
X008034Y004304D01*
X008051Y004300D01*
X008068Y004298D01*
X008768Y004298D01*
X008785Y004300D01*
X008802Y004304D01*
X008818Y004311D01*
X008832Y004321D01*
X008845Y004334D01*
X008855Y004348D01*
X008862Y004364D01*
X008866Y004381D01*
X008868Y004398D01*
X008868Y004548D01*
X008818Y004598D01*
X008818Y006498D01*
X008868Y006548D01*
X008868Y006698D01*
X008866Y006715D01*
X008862Y006732D01*
X008855Y006748D01*
X008845Y006762D01*
X008832Y006775D01*
X008818Y006785D01*
X008802Y006792D01*
X008785Y006796D01*
X008768Y006798D01*
X008068Y006798D01*
X008051Y006796D01*
X008034Y006792D01*
X008018Y006785D01*
X008004Y006775D01*
X007991Y006762D01*
X007981Y006748D01*
X007974Y006732D01*
X007970Y006715D01*
X007968Y006698D01*
X009138Y006708D02*
X009138Y006558D01*
X009188Y006508D01*
X009188Y004608D01*
X009138Y004558D01*
X009138Y004408D01*
X009140Y004391D01*
X009144Y004374D01*
X009151Y004358D01*
X009161Y004344D01*
X009174Y004331D01*
X009188Y004321D01*
X009204Y004314D01*
X009221Y004310D01*
X009238Y004308D01*
X009938Y004308D01*
X009955Y004310D01*
X009972Y004314D01*
X009988Y004321D01*
X010002Y004331D01*
X010015Y004344D01*
X010025Y004358D01*
X010032Y004374D01*
X010036Y004391D01*
X010038Y004408D01*
X010038Y004558D01*
X009988Y004608D01*
X009988Y006508D01*
X010038Y006558D01*
X010038Y006708D01*
X010036Y006725D01*
X010032Y006742D01*
X010025Y006758D01*
X010015Y006772D01*
X010002Y006785D01*
X009988Y006795D01*
X009972Y006802D01*
X009955Y006806D01*
X009938Y006808D01*
X009238Y006808D01*
X009221Y006806D01*
X009204Y006802D01*
X009188Y006795D01*
X009174Y006785D01*
X009161Y006772D01*
X009151Y006758D01*
X009144Y006742D01*
X009140Y006725D01*
X009138Y006708D01*
X001907Y004300D02*
X001869Y004269D01*
X001829Y004241D01*
X001787Y004217D01*
X001744Y004196D01*
X001698Y004179D01*
X001652Y004166D01*
X001604Y004156D01*
X001556Y004150D01*
X001508Y004148D01*
X001908Y004748D02*
X001906Y004787D01*
X001900Y004826D01*
X001891Y004864D01*
X001878Y004901D01*
X001861Y004937D01*
X001841Y004970D01*
X001817Y005002D01*
X001791Y005031D01*
X001762Y005057D01*
X001730Y005081D01*
X001697Y005101D01*
X001661Y005118D01*
X001624Y005131D01*
X001586Y005140D01*
X001547Y005146D01*
X001508Y005148D01*
X001508Y004998D02*
X001538Y004996D01*
X001568Y004991D01*
X001597Y004982D01*
X001624Y004969D01*
X001650Y004954D01*
X001674Y004935D01*
X001695Y004914D01*
X001714Y004890D01*
X001729Y004864D01*
X001742Y004837D01*
X001751Y004808D01*
X001756Y004778D01*
X001758Y004748D01*
X001508Y004348D02*
X001469Y004350D01*
X001430Y004356D01*
X001392Y004365D01*
X001355Y004378D01*
X001319Y004395D01*
X001286Y004415D01*
X001254Y004439D01*
X001225Y004465D01*
X001199Y004494D01*
X001175Y004526D01*
X001155Y004559D01*
X001138Y004595D01*
X001125Y004632D01*
X001116Y004670D01*
X001110Y004709D01*
X001108Y004748D01*
X001258Y004748D02*
X001260Y004718D01*
X001265Y004688D01*
X001274Y004659D01*
X001287Y004632D01*
X001302Y004606D01*
X001321Y004582D01*
X001342Y004561D01*
X001366Y004542D01*
X001392Y004527D01*
X001419Y004514D01*
X001448Y004505D01*
X001478Y004500D01*
X001508Y004498D01*
X001876Y004274D02*
X001911Y004304D01*
X001944Y004335D01*
X001974Y004370D01*
X002001Y004406D01*
X002025Y004444D01*
X002047Y004484D01*
X002065Y004526D01*
X002081Y004569D01*
X002093Y004613D01*
X002101Y004657D01*
X002106Y004703D01*
X002108Y004748D01*
X002106Y004793D01*
X002101Y004839D01*
X002093Y004883D01*
X002081Y004927D01*
X002065Y004970D01*
X002047Y005012D01*
X002025Y005052D01*
X002001Y005090D01*
X001974Y005126D01*
X001944Y005161D01*
X001911Y005192D01*
X001876Y005222D01*
X000908Y004748D02*
X000910Y004702D01*
X000915Y004656D01*
X000924Y004610D01*
X000936Y004565D01*
X000952Y004522D01*
X000971Y004480D01*
X000994Y004439D01*
X001019Y004400D01*
X001047Y004364D01*
X001078Y004329D01*
X001112Y004297D01*
X001148Y004268D01*
X000908Y004748D02*
X000910Y004795D01*
X000916Y004843D01*
X000925Y004889D01*
X000938Y004935D01*
X000954Y004979D01*
X000974Y005023D01*
X000998Y005064D01*
X001024Y005103D01*
X001054Y005140D01*
X001087Y005175D01*
X001122Y005207D01*
X001159Y005236D01*
X001508Y005348D02*
X001554Y005346D01*
X001600Y005341D01*
X001646Y005332D01*
X001690Y005320D01*
X001734Y005304D01*
X001776Y005285D01*
X001817Y005263D01*
X001855Y005237D01*
X001892Y005209D01*
X001508Y005348D02*
X001461Y005346D01*
X001414Y005341D01*
X001368Y005331D01*
X001322Y005318D01*
X001278Y005302D01*
X001235Y005282D01*
X001194Y005259D01*
X001155Y005233D01*
X001118Y005204D01*
X001124Y004287D02*
X001161Y004259D01*
X001199Y004233D01*
X001240Y004211D01*
X001282Y004192D01*
X001326Y004176D01*
X001370Y004164D01*
X001416Y004155D01*
X001462Y004150D01*
X001508Y004148D01*
X012038Y003360D02*
X012151Y003246D01*
X012038Y003360D02*
X012378Y003360D01*
X012378Y003473D02*
X012378Y003246D01*
X012378Y003105D02*
X012038Y002878D01*
X012038Y003105D02*
X012378Y002878D01*
X015413Y001019D02*
X015626Y001019D01*
X015519Y001019D02*
X015519Y000485D01*
X015413Y000378D01*
X015306Y000378D01*
X015199Y000485D01*
X015844Y000378D02*
X016271Y000378D01*
X016057Y000378D02*
X016057Y001019D01*
X015844Y000805D01*
D17*
X008418Y004248D03*
X007208Y004248D03*
X009588Y004258D03*
X009588Y006858D03*
X008418Y006848D03*
X007208Y006848D03*
D18*
X007133Y005813D02*
X007058Y005813D01*
X006983Y005738D01*
X006983Y005588D01*
X007058Y005513D01*
X007058Y005353D02*
X007208Y005353D01*
X007283Y005278D01*
X007283Y005052D01*
X007433Y005052D02*
X006983Y005052D01*
X006983Y005278D01*
X007058Y005353D01*
X007283Y005203D02*
X007433Y005353D01*
X007358Y005513D02*
X007433Y005588D01*
X007433Y005738D01*
X007358Y005813D01*
X007283Y005813D01*
X007208Y005738D01*
X007208Y005663D01*
X007208Y005738D02*
X007133Y005813D01*
X008193Y005738D02*
X008193Y005588D01*
X008268Y005513D01*
X008268Y005353D02*
X008418Y005353D01*
X008493Y005278D01*
X008493Y005052D01*
X008643Y005052D02*
X008193Y005052D01*
X008193Y005278D01*
X008268Y005353D01*
X008493Y005203D02*
X008643Y005353D01*
X008643Y005513D02*
X008343Y005813D01*
X008268Y005813D01*
X008193Y005738D01*
X008643Y005813D02*
X008643Y005513D01*
X009363Y005623D02*
X009813Y005623D01*
X009813Y005473D02*
X009813Y005773D01*
X009513Y005473D02*
X009363Y005623D01*
X009438Y005313D02*
X009588Y005313D01*
X009663Y005238D01*
X009663Y005012D01*
X009813Y005012D02*
X009363Y005012D01*
X009363Y005238D01*
X009438Y005313D01*
X009663Y005163D02*
X009813Y005313D01*
X010228Y003638D02*
X005368Y003638D01*
X005368Y002398D01*
X010228Y002398D01*
X010228Y003638D01*
X010228Y002398D02*
X010228Y001148D01*
X005368Y001148D01*
X005368Y002398D01*
X000508Y002398D01*
X000508Y001148D01*
X005368Y001148D01*
X000508Y002398D02*
X000508Y003638D01*
X005368Y003638D01*
D19*
X001927Y004067D02*
X001879Y004039D01*
X001830Y004015D01*
X001778Y003995D01*
X001726Y003978D01*
X001672Y003965D01*
X001618Y003956D01*
X001563Y003950D01*
X001508Y003948D01*
X001905Y004053D02*
X001953Y004083D01*
X001998Y004116D01*
X002041Y004152D01*
X002082Y004190D01*
X002119Y004232D01*
X002154Y004276D01*
X002185Y004322D01*
X002214Y004371D01*
X002238Y004421D01*
X002259Y004473D01*
X002277Y004527D01*
X002290Y004581D01*
X002300Y004636D01*
X002306Y004692D01*
X002308Y004748D01*
X001508Y003948D02*
X001452Y003950D01*
X001395Y003956D01*
X001340Y003966D01*
X001285Y003980D01*
X001232Y003997D01*
X001179Y004019D01*
X001129Y004044D01*
X002308Y004748D02*
X002306Y004801D01*
X002301Y004855D01*
X002292Y004907D01*
X002280Y004959D01*
X002264Y005010D01*
X002245Y005060D01*
X002222Y005109D01*
X002196Y005156D01*
X002168Y005201D01*
X002136Y005244D01*
X002102Y005284D01*
X002064Y005323D01*
X002025Y005359D01*
X002008Y005368D02*
X001008Y005368D01*
X000708Y004748D02*
X000710Y004694D01*
X000715Y004640D01*
X000724Y004587D01*
X000737Y004534D01*
X000753Y004483D01*
X000773Y004433D01*
X000796Y004384D01*
X000822Y004336D01*
X000851Y004291D01*
X000884Y004248D01*
X000919Y004207D01*
X000957Y004168D01*
X000997Y004132D01*
X001040Y004099D01*
X001085Y004069D01*
X001132Y004042D01*
X000708Y004748D02*
X000710Y004802D01*
X000715Y004855D01*
X000724Y004909D01*
X000737Y004961D01*
X000753Y005012D01*
X000773Y005063D01*
X000795Y005112D01*
X000821Y005159D01*
X000851Y005204D01*
X000883Y005247D01*
X000918Y005288D01*
X000956Y005327D01*
X000996Y005363D01*
X012658Y005848D02*
X012658Y002848D01*
X013408Y002848D01*
X013408Y005848D01*
X015158Y005848D01*
X015158Y002848D01*
X013408Y002848D01*
X013408Y005848D02*
X012658Y005848D01*
D20*
X011958Y005698D02*
X011958Y005498D01*
X010458Y005498D01*
X010458Y005198D01*
X010958Y005198D01*
X010958Y004998D01*
X010458Y004998D01*
X010460Y004998D02*
X010460Y004698D01*
X011958Y004698D01*
X011958Y004498D01*
X010458Y004498D01*
X010458Y004198D01*
X010958Y004198D01*
X010958Y003998D01*
X010458Y003998D01*
X010458Y003698D01*
X011958Y003698D01*
X011958Y003498D01*
X010458Y003498D01*
X010458Y003198D01*
X010958Y003198D01*
X010958Y002998D01*
X010460Y002998D01*
X010458Y002998D01*
X010460Y002998D02*
X010460Y002698D01*
X011958Y002698D01*
X011958Y002498D01*
X010458Y002498D01*
X010460Y001365D01*
X018563Y001365D01*
X018608Y001398D02*
X018608Y007298D01*
X018563Y007332D02*
X010460Y007332D01*
X010460Y006198D01*
X010958Y006198D01*
X010958Y005998D01*
X010458Y005998D01*
X010458Y005698D01*
X010460Y005698D02*
X011958Y005698D01*
X010460Y005698D02*
X010460Y005998D01*
X010458Y006198D02*
X010460Y006198D01*
X010458Y004698D02*
X010460Y004698D01*
X010458Y002698D02*
X010460Y002698D01*
D21*
X009722Y001699D02*
X009722Y001238D01*
X009569Y001238D02*
X009876Y001238D01*
X009416Y001238D02*
X009109Y001238D01*
X009416Y001545D01*
X009416Y001622D01*
X009339Y001699D01*
X009185Y001699D01*
X009109Y001622D01*
X008955Y001699D02*
X008955Y001238D01*
X008648Y001238D02*
X008648Y001699D01*
X008648Y001468D02*
X008955Y001468D01*
X009569Y001545D02*
X009722Y001699D01*
M02*
